<svg width="127" height="16" viewBox="0 0 127 16" fill="none" xmlns="http://www.w3.org/2000/svg">
<path d="M2.35795 15H0.511364L5.85227 0.454545H7.67045L13.0114 15H11.1648L6.81818 2.75568H6.70455L2.35795 15ZM3.03977 9.31818H10.483V10.8807H3.03977V9.31818ZM15.0497 15V4.09091H16.669V5.73864H16.7827C16.9815 5.19886 17.3414 4.76089 17.8622 4.42472C18.383 4.08854 18.9702 3.92045 19.6236 3.92045C19.7467 3.92045 19.9006 3.92282 20.0852 3.92756C20.2699 3.93229 20.4096 3.93939 20.5043 3.94886V5.65341C20.4474 5.6392 20.3172 5.6179 20.1136 5.58949C19.9148 5.55634 19.7041 5.53977 19.4815 5.53977C18.9512 5.53977 18.4777 5.65104 18.0611 5.87358C17.6491 6.09138 17.3224 6.39441 17.081 6.78267C16.8442 7.16619 16.7259 7.60417 16.7259 8.09659V15H15.0497ZM26.5909 15.2273C25.6061 15.2273 24.742 14.9929 23.9986 14.5241C23.2599 14.0554 22.6823 13.3996 22.2656 12.5568C21.8537 11.714 21.6477 10.7292 21.6477 9.60227C21.6477 8.46591 21.8537 7.47396 22.2656 6.62642C22.6823 5.77888 23.2599 5.12074 23.9986 4.65199C24.742 4.18324 25.6061 3.94886 26.5909 3.94886C27.5758 3.94886 28.4375 4.18324 29.1761 4.65199C29.9195 5.12074 30.4972 5.77888 30.9091 6.62642C31.3258 7.47396 31.5341 8.46591 31.5341 9.60227C31.5341 10.7292 31.3258 11.714 30.9091 12.5568C30.4972 13.3996 29.9195 14.0554 29.1761 14.5241C28.4375 14.9929 27.5758 15.2273 26.5909 15.2273ZM26.5909 13.7216C27.339 13.7216 27.9545 13.5298 28.4375 13.1463C28.9205 12.7628 29.2779 12.2585 29.5099 11.6335C29.742 11.0085 29.858 10.3314 29.858 9.60227C29.858 8.87311 29.742 8.19366 29.5099 7.56392C29.2779 6.93419 28.9205 6.42519 28.4375 6.03693C27.9545 5.64867 27.339 5.45455 26.5909 5.45455C25.8428 5.45455 25.2273 5.64867 24.7443 6.03693C24.2614 6.42519 23.9039 6.93419 23.6719 7.56392C23.4399 8.19366 23.3239 8.87311 23.3239 9.60227C23.3239 10.3314 23.4399 11.0085 23.6719 11.6335C23.9039 12.2585 24.2614 12.7628 24.7443 13.1463C25.2273 13.5298 25.8428 13.7216 26.5909 13.7216ZM40.9677 10.5398V4.09091H42.6438V15H40.9677V13.1534H40.854C40.5984 13.7074 40.2006 14.1785 39.6609 14.5668C39.1211 14.9503 38.4393 15.142 37.6154 15.142C36.9336 15.142 36.3275 14.9929 35.7972 14.6946C35.2669 14.3916 34.8503 13.937 34.5472 13.331C34.2442 12.7202 34.0927 11.9508 34.0927 11.0227V4.09091H35.7688V10.9091C35.7688 11.7045 35.9914 12.339 36.4364 12.8125C36.8862 13.286 37.4592 13.5227 38.1552 13.5227C38.5719 13.5227 38.9956 13.4162 39.4265 13.2031C39.8621 12.9901 40.2267 12.6634 40.5202 12.223C40.8185 11.7827 40.9677 11.2216 40.9677 10.5398ZM47.3899 8.4375V15H45.7138V4.09091H47.3331V5.79545H47.4751C47.7308 5.24148 48.1191 4.7964 48.6399 4.46023C49.1607 4.11932 49.8331 3.94886 50.657 3.94886C51.3956 3.94886 52.0419 4.10038 52.5959 4.40341C53.1499 4.7017 53.5807 5.15625 53.8885 5.76705C54.1963 6.37311 54.3501 7.14015 54.3501 8.06818V15H52.674V8.18182C52.674 7.32481 52.4515 6.6572 52.0064 6.17898C51.5613 5.69602 50.9505 5.45455 50.174 5.45455C49.639 5.45455 49.1607 5.57055 48.7393 5.80256C48.3227 6.03456 47.9936 6.37311 47.7521 6.81818C47.5107 7.26326 47.3899 7.80303 47.3899 8.4375ZM61.5323 15.2273C60.6232 15.2273 59.8207 14.9976 59.1246 14.5384C58.4286 14.0743 57.8841 13.4209 57.4911 12.5781C57.0981 11.7306 56.9016 10.7292 56.9016 9.57386C56.9016 8.42803 57.0981 7.43371 57.4911 6.59091C57.8841 5.74811 58.431 5.09706 59.1317 4.63778C59.8325 4.1785 60.6422 3.94886 61.5607 3.94886C62.271 3.94886 62.832 4.06723 63.244 4.30398C63.6606 4.53598 63.9779 4.80114 64.1957 5.09943C64.4182 5.39299 64.591 5.63447 64.7141 5.82386H64.8562V0.454545H66.5323V15H64.913V13.3239H64.7141C64.591 13.5227 64.4158 13.7737 64.1886 14.0767C63.9613 14.375 63.637 14.6425 63.2156 14.8793C62.7942 15.1113 62.2331 15.2273 61.5323 15.2273ZM61.7596 13.7216C62.4319 13.7216 63.0001 13.5464 63.4641 13.196C63.9281 12.8409 64.2809 12.3509 64.5224 11.7259C64.7638 11.0961 64.8846 10.3693 64.8846 9.54545C64.8846 8.73106 64.7662 8.01847 64.5295 7.40767C64.2927 6.79214 63.9424 6.31392 63.4783 5.97301C63.0143 5.62737 62.4414 5.45455 61.7596 5.45455C61.0494 5.45455 60.4575 5.63684 59.984 6.00142C59.5153 6.36127 59.1625 6.85133 58.9258 7.47159C58.6938 8.08712 58.5778 8.77841 58.5778 9.54545C58.5778 10.322 58.6961 11.0275 58.9329 11.6619C59.1744 12.2917 59.5295 12.7936 59.9982 13.1676C60.4717 13.5369 61.0588 13.7216 61.7596 13.7216ZM78.3292 15L74.3519 0.454545H76.1417L79.1815 12.3011H79.3235L82.4201 0.454545H84.4087L87.5053 12.3011H87.6474L90.6871 0.454545H92.4769L88.4996 15H86.6815L83.4712 3.40909H83.3576L80.1474 15H78.3292ZM97.8604 15.2273C96.8756 15.2273 96.0115 14.9929 95.2681 14.5241C94.5295 14.0554 93.9518 13.3996 93.5352 12.5568C93.1232 11.714 92.9173 10.7292 92.9173 9.60227C92.9173 8.46591 93.1232 7.47396 93.5352 6.62642C93.9518 5.77888 94.5295 5.12074 95.2681 4.65199C96.0115 4.18324 96.8756 3.94886 97.8604 3.94886C98.8453 3.94886 99.707 4.18324 100.446 4.65199C101.189 5.12074 101.767 5.77888 102.179 6.62642C102.595 7.47396 102.804 8.46591 102.804 9.60227C102.804 10.7292 102.595 11.714 102.179 12.5568C101.767 13.3996 101.189 14.0554 100.446 14.5241C99.707 14.9929 98.8453 15.2273 97.8604 15.2273ZM97.8604 13.7216C98.6085 13.7216 99.2241 13.5298 99.707 13.1463C100.19 12.7628 100.547 12.2585 100.779 11.6335C101.011 11.0085 101.127 10.3314 101.127 9.60227C101.127 8.87311 101.011 8.19366 100.779 7.56392C100.547 6.93419 100.19 6.42519 99.707 6.03693C99.2241 5.64867 98.6085 5.45455 97.8604 5.45455C97.1123 5.45455 96.4968 5.64867 96.0138 6.03693C95.5309 6.42519 95.1734 6.93419 94.9414 7.56392C94.7094 8.19366 94.5934 8.87311 94.5934 9.60227C94.5934 10.3314 94.7094 11.0085 94.9414 11.6335C95.1734 12.2585 95.5309 12.7628 96.0138 13.1463C96.4968 13.5298 97.1123 13.7216 97.8604 13.7216ZM105.362 15V4.09091H106.982V5.73864H107.095C107.294 5.19886 107.654 4.76089 108.175 4.42472C108.696 4.08854 109.283 3.92045 109.936 3.92045C110.059 3.92045 110.213 3.92282 110.398 3.92756C110.582 3.93229 110.722 3.93939 110.817 3.94886V5.65341C110.76 5.6392 110.63 5.6179 110.426 5.58949C110.227 5.55634 110.017 5.53977 109.794 5.53977C109.264 5.53977 108.79 5.65104 108.374 5.87358C107.962 6.09138 107.635 6.39441 107.393 6.78267C107.157 7.16619 107.038 7.60417 107.038 8.09659V15H105.362ZM114.48 0.454545V15H112.804V0.454545H114.48ZM121.669 15.2273C120.76 15.2273 119.957 14.9976 119.261 14.5384C118.565 14.0743 118.021 13.4209 117.628 12.5781C117.235 11.7306 117.038 10.7292 117.038 9.57386C117.038 8.42803 117.235 7.43371 117.628 6.59091C118.021 5.74811 118.568 5.09706 119.268 4.63778C119.969 4.1785 120.779 3.94886 121.697 3.94886C122.408 3.94886 122.969 4.06723 123.381 4.30398C123.797 4.53598 124.115 4.80114 124.332 5.09943C124.555 5.39299 124.728 5.63447 124.851 5.82386H124.993V0.454545H126.669V15H125.05V13.3239H124.851C124.728 13.5227 124.553 13.7737 124.325 14.0767C124.098 14.375 123.774 14.6425 123.352 14.8793C122.931 15.1113 122.37 15.2273 121.669 15.2273ZM121.896 13.7216C122.569 13.7216 123.137 13.5464 123.601 13.196C124.065 12.8409 124.418 12.3509 124.659 11.7259C124.901 11.0961 125.021 10.3693 125.021 9.54545C125.021 8.73106 124.903 8.01847 124.666 7.40767C124.429 6.79214 124.079 6.31392 123.615 5.97301C123.151 5.62737 122.578 5.45455 121.896 5.45455C121.186 5.45455 120.594 5.63684 120.121 6.00142C119.652 6.36127 119.299 6.85133 119.062 7.47159C118.83 8.08712 118.714 8.77841 118.714 9.54545C118.714 10.322 118.833 11.0275 119.07 11.6619C119.311 12.2917 119.666 12.7936 120.135 13.1676C120.608 13.5369 121.196 13.7216 121.896 13.7216Z" fill="white"/>
</svg>
